<svg width="4096" height="1166" viewBox="0 0 4096 1166" fill="none" xmlns="http://www.w3.org/2000/svg">
<g clip-path="url(#clip0_2466_94)">
<path d="M1012 0C1483.1 0 1483.1 0 1504.75 5.625C1505.73 5.87588 1506.71 6.12677 1507.72 6.38525C1525.2 11.0292 1542.16 17.2467 1558 26C1558.8 26.4315 1559.6 26.863 1560.42 27.3076C1573.32 34.3032 1585.38 42.0349 1597 51C1597.71 51.543 1598.41 52.086 1599.14 52.6455C1611.2 62.0144 1622.26 72.1978 1632 84C1632.41 84.4924 1632.82 84.9848 1633.25 85.4922C1653.61 109.94 1669.42 136.477 1679.12 166.812C1679.51 168.017 1679.51 168.017 1679.91 169.246C1684.43 183.307 1688.05 197.331 1690 212C1690.09 212.634 1690.18 213.267 1690.27 213.92C1692.12 227.593 1692.34 241.203 1692.32 254.986C1692.31 258.599 1692.34 262.211 1692.36 265.824C1692.4 281.42 1691.31 296.577 1689 312C1688.71 313.935 1688.71 313.935 1688.41 315.909C1687.94 318.809 1687.4 321.684 1686.81 324.562C1686.5 326.079 1686.5 326.079 1686.19 327.627C1683.94 338.151 1680.59 348.261 1676.94 358.373C1676.11 360.705 1675.3 363.044 1674.5 365.391C1669.3 380.401 1661.84 394.526 1652 407C1651.24 408.021 1650.48 409.042 1649.7 410.094C1640.26 422.789 1629.27 436.156 1616 445C1616.49 445.301 1616.98 445.601 1617.49 445.911C1632.97 455.42 1647.83 465.403 1661 478C1661.69 478.642 1662.39 479.284 1663.1 479.945C1668.52 485.111 1672.71 490.887 1677 497C1677.76 498.027 1678.52 499.055 1679.3 500.113C1707.21 537.847 1722.05 581.707 1728 628C1728.09 628.698 1728.18 629.395 1728.27 630.114C1729.39 640.173 1729.18 650.308 1729.2 660.414C1729.21 661.443 1729.21 662.472 1729.21 663.532C1729.23 668.988 1729.24 674.444 1729.24 679.899C1729.24 684.358 1729.26 688.817 1729.28 693.275C1729.64 764.404 1715.24 826.852 1666.05 880.723C1664.29 882.674 1662.61 884.66 1660.94 886.688C1658.26 889.829 1655.31 892.479 1652.16 895.141C1650.71 896.388 1649.29 897.67 1647.9 898.984C1639.9 906.516 1631.03 912.771 1622 919C1621.26 919.515 1620.52 920.03 1619.76 920.561C1587.8 942.619 1548.36 955.299 1510 960C1509.3 960.088 1508.59 960.177 1507.87 960.268C1498.33 961.297 1488.77 961.136 1479.19 961.12C1477.18 961.121 1475.16 961.122 1473.15 961.123C1467.62 961.125 1462.1 961.121 1456.57 961.116C1450.52 961.112 1444.47 961.113 1438.41 961.114C1427.34 961.114 1416.26 961.111 1405.18 961.104C1390.93 961.097 1376.67 961.095 1362.42 961.095C1326.55 961.089 1290.68 961.075 1254.81 961.062C1174.68 961.042 1094.56 961.021 1012 961C1012 643.87 1012 326.74 1012 0ZM1191 170C1191 233.69 1191 297.38 1191 363C1232.33 363.117 1232.33 363.117 1273.66 363.195C1279.24 363.203 1284.83 363.211 1290.41 363.22C1291.11 363.221 1291.81 363.222 1292.54 363.223C1303.8 363.24 1315.07 363.272 1326.34 363.309C1337.92 363.346 1349.5 363.368 1361.08 363.376C1367.58 363.382 1374.08 363.394 1380.58 363.423C1386.7 363.45 1392.83 363.458 1398.96 363.452C1401.2 363.454 1403.43 363.461 1405.67 363.477C1422.24 363.586 1438.26 362.521 1453.44 355.188C1454.18 354.84 1454.93 354.492 1455.69 354.134C1478.82 343.111 1496.3 324.239 1505 300.042C1505.69 298.034 1506.35 296.021 1507 294C1507.51 292.407 1507.51 292.407 1508.04 290.781C1514.35 266.97 1510.3 239.092 1498.15 217.754C1493.75 210.887 1488.62 204.884 1483 199C1482.1 197.987 1482.1 197.987 1481.18 196.953C1464.71 179.125 1441.57 171.802 1418 170C1414.73 169.877 1411.46 169.869 1408.18 169.88C1407.24 169.879 1406.31 169.878 1405.34 169.877C1402.24 169.876 1399.13 169.881 1396.03 169.886C1393.79 169.887 1391.55 169.887 1389.31 169.886C1383.26 169.886 1377.2 169.892 1371.15 169.899C1364.81 169.905 1358.48 169.905 1352.14 169.907C1341.51 169.909 1330.89 169.916 1320.26 169.925C1309.32 169.934 1298.38 169.941 1287.44 169.945C1286.75 169.945 1286.07 169.946 1285.37 169.946C1279.43 169.948 1273.5 169.95 1267.56 169.952C1242.04 169.962 1216.52 169.982 1191 170ZM1191 535C1191 619.15 1191 703.3 1191 790C1251.36 790.093 1251.36 790.093 1312.94 790.188C1331.97 790.228 1331.97 790.228 1351.39 790.27C1362.8 790.28 1362.8 790.28 1374.21 790.286C1379.28 790.289 1384.34 790.3 1389.41 790.317C1395.89 790.337 1402.37 790.343 1408.85 790.339C1411.22 790.34 1413.59 790.346 1415.95 790.358C1432.01 790.433 1447.56 789.748 1462.88 784.438C1463.6 784.188 1464.33 783.939 1465.08 783.683C1478.88 778.726 1491.8 771.455 1503 762C1503.99 761.17 1504.99 760.34 1506.01 759.484C1530.46 738.407 1545.4 707.383 1547.85 675.329C1549.99 641.061 1542.4 606.701 1519.46 580.227C1496.51 554.239 1466.84 537.636 1432 535C1428.55 534.875 1425.1 534.869 1421.65 534.88C1420.66 534.879 1419.67 534.878 1418.65 534.877C1415.35 534.875 1412.04 534.881 1408.74 534.886C1406.33 534.887 1403.91 534.887 1401.5 534.886C1395.05 534.886 1388.6 534.892 1382.15 534.899C1376.09 534.904 1370.04 534.905 1363.98 534.905C1346.28 534.911 1328.58 534.925 1310.88 534.938C1271.32 534.958 1231.76 534.979 1191 535Z" fill="#ac0430"/>
<path d="M3084 0C3143.07 0 3202.14 0 3263 0C3263 317.13 3263 634.26 3263 961C3203.93 961 3144.86 961 3084 961C3083.67 958.03 3083.34 955.06 3083 952C3082.01 952.249 3082.01 952.249 3080.99 952.503C3077.83 953.287 3074.67 954.05 3071.5 954.812C3070.46 955.074 3069.42 955.335 3068.35 955.604C3048.16 960.415 3027.83 961.448 3007.14 961.404C3004.66 961.41 3002.17 961.417 2999.68 961.425C2993.68 961.441 2987.69 961.443 2981.7 961.438C2976.81 961.434 2971.93 961.435 2967.04 961.44C2966.34 961.441 2965.64 961.442 2964.92 961.443C2963.49 961.444 2962.06 961.446 2960.64 961.447C2947.33 961.461 2934.02 961.456 2920.72 961.444C2908.62 961.434 2896.51 961.447 2884.41 961.471C2871.91 961.496 2859.4 961.505 2846.89 961.498C2839.91 961.495 2832.92 961.497 2825.93 961.515C2769.13 961.649 2769.13 961.649 2747 957C2745.4 956.665 2745.4 956.665 2743.76 956.322C2722.58 951.788 2702.87 943.967 2683.25 934.938C2682.62 934.652 2682 934.367 2681.35 934.073C2669.46 928.626 2658.95 921.727 2648.63 913.75C2647.9 913.194 2647.18 912.638 2646.44 912.065C2626.71 896.726 2608.36 879.56 2594 859C2593.42 858.174 2593.42 858.174 2592.83 857.332C2585.83 847.277 2579.67 836.862 2574 826C2573.54 825.128 2573.09 824.257 2572.62 823.359C2553 785.341 2546.48 745.323 2546.6 702.953C2546.61 699.135 2546.6 695.317 2546.59 691.499C2546.59 685.095 2546.59 678.691 2546.61 672.287C2546.63 664.95 2546.62 657.614 2546.6 650.278C2546.59 643.906 2546.59 637.534 2546.6 631.162C2546.6 627.389 2546.6 623.615 2546.59 619.841C2546.54 598.725 2547.56 578.041 2552.25 557.375C2552.46 556.433 2552.67 555.491 2552.89 554.521C2559.84 524.765 2572.63 494.812 2591.18 470.402C2593.01 467.984 2594.73 465.509 2596.44 463C2606.17 449.096 2617.88 435.797 2631 425C2631.94 424.174 2632.88 423.347 2633.84 422.496C2641.76 415.549 2650.08 409.594 2659 404C2659.61 403.616 2660.22 403.232 2660.85 402.836C2665.18 400.135 2669.57 397.54 2674 395C2674.63 394.636 2675.26 394.271 2675.91 393.896C2717.84 369.9 2763.34 362.842 2810.9 362.855C2813.17 362.852 2815.43 362.848 2817.7 362.845C2823.82 362.836 2829.93 362.833 2836.05 362.833C2839.89 362.832 2843.72 362.83 2847.56 362.827C2860.28 362.818 2873.01 362.814 2885.74 362.815C2886.42 362.815 2887.11 362.815 2887.81 362.815C2888.84 362.815 2888.84 362.815 2889.88 362.815C2900.95 362.815 2912.01 362.806 2923.08 362.792C2934.5 362.777 2945.92 362.77 2957.35 362.771C2963.73 362.771 2970.12 362.769 2976.51 362.758C2982.53 362.748 2988.55 362.748 2994.57 362.755C2996.75 362.757 2998.94 362.754 3001.13 362.748C3021.1 362.696 3041.28 363.278 3060.88 367.438C3061.91 367.642 3062.95 367.846 3064.01 368.057C3070.8 369.426 3077.28 371.168 3084 373C3084 249.91 3084 126.82 3084 0ZM2746.81 562.25C2728.22 583.495 2725.68 606.014 2725.7 633.051C2725.7 635.397 2725.69 637.743 2725.69 640.088C2725.68 644.991 2725.68 649.894 2725.68 654.797C2725.69 661.043 2725.67 667.29 2725.65 673.537C2725.64 678.378 2725.63 683.219 2725.64 688.061C2725.64 690.362 2725.63 692.663 2725.62 694.965C2725.52 722.077 2730.13 745.886 2749.84 765.961C2756.67 772.659 2764.25 777.865 2772.69 782.312C2773.26 782.626 2773.84 782.94 2774.43 783.263C2788.5 790.266 2803.97 790.586 2819.32 790.518C2821.41 790.523 2823.49 790.53 2825.58 790.539C2831.19 790.557 2836.8 790.55 2842.41 790.537C2848.31 790.527 2854.21 790.537 2860.12 790.543C2870.02 790.55 2879.93 790.541 2889.83 790.521C2901.25 790.5 2912.67 790.507 2924.09 790.529C2933.93 790.547 2943.77 790.55 2953.61 790.539C2959.47 790.533 2965.34 790.532 2971.2 790.545C2976.71 790.557 2982.22 790.549 2987.73 790.526C2989.74 790.52 2991.75 790.522 2993.76 790.531C3018.93 790.632 3040.76 784.256 3059.44 766.586C3080.78 745.049 3084.32 719.088 3084.3 690.016C3084.31 687.788 3084.31 685.561 3084.31 683.333C3084.32 678.68 3084.32 674.027 3084.32 669.374C3084.31 663.456 3084.33 657.538 3084.35 651.62C3084.37 647.023 3084.37 642.426 3084.36 637.829C3084.36 635.65 3084.37 633.47 3084.38 631.29C3084.49 603.041 3079.18 580.733 3060 559C3059.46 558.364 3058.92 557.729 3058.36 557.074C3044.87 542.286 3024.38 535.692 3005 534C3002.13 533.874 2999.26 533.86 2996.38 533.866C2995.56 533.864 2994.74 533.862 2993.9 533.859C2991.18 533.853 2988.47 533.854 2985.75 533.855C2983.79 533.852 2981.83 533.848 2979.87 533.845C2974.57 533.836 2969.27 533.833 2963.96 533.833C2960.64 533.832 2957.32 533.83 2954 533.827C2942.41 533.818 2930.81 533.814 2919.21 533.815C2908.43 533.815 2897.65 533.805 2886.87 533.789C2877.59 533.776 2868.31 533.771 2859.03 533.771C2853.49 533.771 2847.96 533.769 2842.43 533.758C2837.22 533.748 2832.01 533.748 2826.81 533.755C2824.9 533.757 2823 533.754 2821.1 533.748C2791.5 533.66 2767.89 540.116 2746.81 562.25Z" fill="#ac0430"/>
<path d="M2036.89 362.855C2039.27 362.852 2041.64 362.849 2044.02 362.845C2050.42 362.836 2056.83 362.834 2063.24 362.833C2067.26 362.833 2071.27 362.83 2075.29 362.828C2088.62 362.819 2101.95 362.814 2115.28 362.815C2116.36 362.815 2116.36 362.815 2117.45 362.815C2118.53 362.815 2118.53 362.815 2119.63 362.815C2131.22 362.816 2142.81 362.806 2154.4 362.792C2166.36 362.778 2178.33 362.771 2190.29 362.772C2196.98 362.772 2203.67 362.769 2210.37 362.758C2216.67 362.749 2222.98 362.749 2229.28 362.756C2231.57 362.757 2233.87 362.755 2236.16 362.749C2256.47 362.698 2277.23 363.019 2297.19 367.188C2298.25 367.402 2299.3 367.615 2300.4 367.835C2340.75 376.312 2380.73 394.875 2412 422C2412.8 422.695 2413.61 423.39 2414.44 424.106C2425.23 433.611 2435.1 443.708 2444 455C2444.93 456.12 2445.86 457.237 2446.8 458.352C2454.82 468.005 2461.58 478.225 2468 489C2468.37 489.607 2468.74 490.214 2469.12 490.839C2494.49 532.691 2500.15 583.059 2500.17 630.84C2500.17 633.336 2500.17 635.831 2500.18 638.327C2500.18 643.54 2500.19 648.754 2500.18 653.967C2500.18 660.576 2500.2 667.185 2500.22 673.794C2500.23 678.946 2500.23 684.098 2500.23 689.251C2500.23 691.683 2500.23 694.116 2500.24 696.549C2500.3 717.213 2499.85 738.093 2495.87 758.438C2495.66 759.541 2495.45 760.644 2495.23 761.78C2488.5 795.234 2475.16 828.349 2455 856C2454.59 856.559 2454.19 857.117 2453.77 857.692C2445.33 869.258 2435.64 879.537 2425.41 889.528C2423 891.9 2423 891.9 2421.18 894.379C2387.41 934.916 2323.83 955.515 2273.31 960.721C2263.25 961.569 2253.14 961.416 2243.05 961.389C2240.45 961.393 2237.84 961.398 2235.24 961.405C2228.96 961.418 2222.68 961.415 2216.41 961.406C2211.3 961.399 2206.18 961.399 2201.07 961.402C2200.34 961.402 2199.6 961.403 2198.85 961.403C2197.36 961.404 2195.87 961.405 2194.37 961.406C2180.46 961.415 2166.55 961.405 2152.64 961.389C2140.76 961.375 2128.87 961.378 2116.99 961.392C2103.12 961.408 2089.25 961.414 2075.38 961.405C2073.9 961.404 2072.41 961.403 2070.93 961.402C2069.83 961.401 2069.83 961.401 2068.71 961.4C2063.62 961.398 2058.53 961.402 2053.44 961.409C2046.55 961.419 2039.67 961.412 2032.79 961.395C2030.28 961.391 2027.78 961.392 2025.27 961.398C1995.82 961.47 1967.87 957.566 1940 948C1939.35 947.782 1938.7 947.563 1938.03 947.338C1911.8 938.424 1887.45 925.528 1866 908C1865.48 907.585 1864.97 907.17 1864.43 906.742C1852.28 896.952 1841.02 885.967 1831 874C1830.2 873.098 1829.39 872.196 1828.57 871.266C1816.75 857.886 1807.28 842.779 1799 827C1798.64 826.326 1798.28 825.651 1797.9 824.956C1777.65 786.754 1771.47 743.144 1771.6 700.465C1771.6 696.886 1771.6 693.307 1771.59 689.728C1771.59 683.725 1771.59 677.722 1771.61 671.719C1771.62 664.858 1771.62 657.996 1771.6 651.135C1771.59 645.16 1771.59 639.186 1771.59 633.211C1771.6 629.68 1771.6 626.148 1771.59 622.616C1771.54 600.408 1772.4 578.146 1777.81 556.5C1778.2 554.897 1778.2 554.897 1778.59 553.261C1780.71 544.684 1783.24 536.306 1786.27 528.009C1786.98 526.053 1787.65 524.088 1788.32 522.118C1799.49 489.947 1819.97 460.226 1844.41 436.594C1846.15 434.913 1846.15 434.913 1848 432.438C1850.96 428.828 1854.42 425.984 1858 423C1858.49 422.579 1858.99 422.157 1859.49 421.723C1870.25 412.558 1881.83 405.152 1894 398C1895.17 397.308 1895.17 397.308 1896.36 396.601C1939.94 370.876 1986.96 362.842 2036.89 362.855ZM1970.54 563.149C1955.73 579.761 1950.84 602.117 1950.85 623.802C1950.85 624.725 1950.85 625.649 1950.84 626.6C1950.83 629.623 1950.83 632.646 1950.83 635.668C1950.83 637.793 1950.82 639.917 1950.82 642.042C1950.82 646.486 1950.81 650.93 1950.81 655.374C1950.81 661.031 1950.8 666.688 1950.78 672.345C1950.77 676.732 1950.77 681.118 1950.77 685.505C1950.77 687.589 1950.76 689.672 1950.76 691.756C1950.62 713.113 1950.62 713.113 1955.37 733.813C1956.04 735.667 1956.04 735.667 1956.72 737.559C1957.14 738.695 1957.56 739.83 1958 741C1958.32 741.94 1958.64 742.88 1958.97 743.848C1965.57 762.249 1983.48 775.218 2000.39 783.426C2010.83 787.984 2020.85 790.148 2032.17 790.154C2033.09 790.159 2034 790.163 2034.94 790.168C2038 790.181 2041.06 790.187 2044.12 790.193C2046.32 790.201 2048.52 790.209 2050.71 790.218C2057.93 790.244 2065.14 790.26 2072.35 790.274C2074.84 790.279 2077.33 790.285 2079.82 790.29C2090.18 790.312 2100.55 790.331 2110.91 790.342C2113.59 790.345 2116.28 790.348 2118.97 790.351C2119.63 790.351 2120.3 790.352 2120.99 790.353C2131.77 790.365 2142.56 790.399 2153.35 790.44C2164.45 790.483 2175.55 790.506 2186.65 790.512C2192.88 790.515 2199.1 790.527 2205.32 790.56C2211.18 790.59 2217.05 790.596 2222.91 790.584C2225.05 790.584 2227.19 790.592 2229.33 790.61C2256.97 790.826 2278.93 783.273 2299 764C2300.06 763.02 2300.06 763.02 2301.14 762.02C2314.54 748.353 2320.14 725.805 2320.16 707.352C2320.17 706.291 2320.17 705.23 2320.18 704.137C2320.19 700.633 2320.2 697.129 2320.2 693.625C2320.21 691.179 2320.21 688.732 2320.22 686.286C2320.23 681.155 2320.24 676.024 2320.24 670.893C2320.24 664.347 2320.27 657.802 2320.3 651.257C2320.32 646.201 2320.32 641.144 2320.32 636.087C2320.33 633.676 2320.33 631.265 2320.35 628.854C2320.48 602.468 2316.34 579.284 2297.39 559.336C2275.84 538.315 2251.24 533.678 2222.1 533.742C2220.01 533.739 2217.93 533.735 2215.84 533.731C2210.2 533.722 2204.57 533.725 2198.93 533.732C2193.01 533.737 2187.09 533.732 2181.17 533.729C2171.23 533.725 2161.3 533.73 2151.36 533.74C2139.89 533.751 2128.43 533.747 2116.97 533.736C2107.1 533.727 2097.23 533.726 2087.36 533.731C2081.48 533.734 2075.6 533.734 2069.71 533.728C2064.18 533.722 2058.65 533.726 2053.11 533.738C2051.09 533.74 2049.07 533.74 2047.05 533.735C2016.26 533.674 1992.5 540.666 1970.54 563.149Z" fill="#ac0430"/>
<path d="M3283 363.001C3309.42 362.603 3335.85 362.304 3362.28 362.12C3374.55 362.032 3386.82 361.913 3399.09 361.718C3409.78 361.549 3420.48 361.439 3431.18 361.401C3436.84 361.379 3442.5 361.327 3448.16 361.203C3453.5 361.088 3458.83 361.052 3464.16 361.078C3466.12 361.073 3468.07 361.04 3470.02 360.974C3482.06 360.591 3482.06 360.591 3487 363.001C3491.36 367.124 3493.79 372.481 3496.1 377.931C3497.36 380.828 3498.9 383.539 3500.47 386.278C3501.48 388.163 3502.49 390.05 3503.5 391.938C3504.61 394.01 3505.73 396.082 3506.84 398.153C3507.65 399.648 3507.65 399.648 3508.47 401.172C3510.61 405.133 3512.8 409.069 3515 413.001C3518.86 419.903 3522.62 426.852 3526.38 433.813C3532.4 444.983 3538.66 456.007 3545 467.001C3556.01 486.13 3567.01 505.29 3577.19 524.876C3580.98 532.177 3585 539.328 3589.11 546.454C3593.55 554.164 3597.85 561.951 3602.12 569.751C3606.75 578.169 3611.42 586.544 3616.33 594.797C3619.92 600.825 3623.41 606.904 3626.88 613.001C3627.42 613.957 3627.97 614.913 3628.54 615.899C3631.34 620.841 3633.87 625.78 3636.11 630.999C3637.38 633.865 3638.92 636.544 3640.5 639.251C3641.21 640.473 3641.92 641.696 3642.62 642.919C3643.01 643.574 3643.39 644.229 3643.78 644.905C3646.04 648.782 3648.27 652.672 3650.5 656.563C3651 657.432 3651.5 658.301 3652.01 659.196C3656.82 667.626 3661.49 676.132 3666.16 684.641C3670.97 693.393 3675.89 702.064 3681 710.645C3682.74 713.562 3684.45 716.486 3686.12 719.438C3686.5 720.097 3686.87 720.756 3687.26 721.434C3688 723.001 3688 723.001 3688 725.001C3688.66 725.001 3689.32 725.001 3690 725.001C3690.39 723.988 3690.39 723.988 3690.78 722.954C3694.9 712.969 3700.17 703.52 3705.72 694.273C3710 687.114 3713.99 679.81 3718 672.501C3722.3 664.654 3726.61 656.816 3731.19 649.126C3738.84 636.263 3746.51 623.343 3753.06 609.876C3757.41 600.932 3762.42 592.381 3767.4 583.775C3770.06 579.156 3772.69 574.517 3775.31 569.876C3775.84 568.937 3776.37 567.999 3776.92 567.032C3779.93 561.702 3782.92 556.359 3785.88 551.001C3786.37 550.11 3786.37 550.11 3786.87 549.202C3788.46 546.329 3790.04 543.453 3791.62 540.574C3794.7 535.009 3797.87 529.535 3801.23 524.141C3803.93 519.792 3806.38 515.504 3808.56 510.876C3815.73 496.102 3823.88 481.636 3832.44 467.626C3837.52 459.303 3842.15 450.734 3846.84 442.187C3851.13 434.381 3855.47 426.613 3859.88 418.876C3864.13 411.403 3868.21 403.867 3872.18 396.237C3875.65 389.582 3879.3 383.034 3883 376.501C3883.56 375.502 3884.13 374.504 3884.71 373.475C3886.73 369.918 3888.73 366.406 3891 363.001C3893.75 362.706 3896.27 362.61 3899.02 362.64C3899.86 362.637 3900.7 362.635 3901.57 362.632C3904.39 362.627 3907.22 362.644 3910.05 362.66C3912.07 362.661 3914.09 362.661 3916.11 362.659C3921.6 362.658 3927.1 362.676 3932.6 362.697C3938.34 362.715 3944.08 362.717 3949.82 362.721C3960.7 362.73 3971.57 362.755 3982.45 362.785C3994.83 362.818 4007.21 362.835 4019.59 362.85C4045.06 362.881 4070.53 362.934 4096 363.001C4095.41 367.592 4094.76 371.094 4092.52 375.161C4092 376.107 4091.48 377.054 4090.95 378.029C4090.39 379.03 4089.83 380.032 4089.25 381.063C4088.37 382.653 4088.37 382.653 4087.48 384.275C4083.16 392.059 4078.66 399.726 4074.09 407.361C4069.21 415.545 4064.62 423.877 4060.05 432.236C4055.33 440.847 4050.49 449.362 4045.5 457.813C4041.44 464.701 4037.58 471.597 4034.1 478.795C4026.42 494.528 4017.28 509.584 4008.41 524.667C4002.93 534.025 3997.7 543.513 3992.5 553.031C3989.67 558.211 3986.82 563.358 3983.75 568.403C3981.41 572.253 3979.38 576.124 3977.44 580.188C3972.64 589.989 3967.18 599.404 3961.77 608.874C3959.32 613.19 3956.91 617.528 3954.5 621.865C3946.03 637.083 3946.03 637.083 3941.94 643.563C3934.25 655.797 3927.71 668.781 3921.04 681.59C3917.27 688.817 3913.36 695.898 3909.17 702.89C3904.96 709.958 3901.02 717.166 3897.06 724.376C3892.53 732.628 3887.99 740.866 3883.25 749.001C3882.82 749.738 3882.39 750.476 3881.95 751.236C3881.08 752.717 3880.22 754.198 3879.35 755.679C3870.28 771.125 3870.28 771.125 3862 787.001C3857.63 795.987 3852.6 804.579 3847.6 813.227C3844.94 817.846 3842.31 822.485 3839.69 827.126C3839.16 828.066 3838.62 829.005 3838.08 829.974C3835.08 835.28 3832.11 840.598 3829.16 845.93C3828.84 846.514 3828.51 847.098 3828.18 847.7C3826.56 850.63 3824.94 853.56 3823.32 856.491C3820.01 862.46 3816.64 868.372 3813.06 874.188C3810.26 878.763 3807.72 883.425 3805.38 888.251C3797.6 904.226 3788.68 919.739 3779.43 934.899C3776.03 940.557 3772.88 946.353 3769.69 952.126C3730.82 1022.36 3730.82 1022.36 3706.08 1048.75C3700.91 1054.34 3696.22 1060.37 3691.62 1066.44C3684.58 1075.51 3676.44 1083.66 3668.38 1091.81C3667.68 1092.52 3666.99 1093.22 3666.28 1093.95C3661.48 1098.75 3656.42 1102.93 3651 1107C3649.63 1108.06 3648.26 1109.12 3646.89 1110.18C3643.31 1112.94 3639.7 1115.68 3636.09 1118.42C3634.79 1119.4 3633.5 1120.38 3632.21 1121.37C3597.02 1148.37 3548.72 1166.26 3504.24 1166.11C3503.08 1166.11 3501.92 1166.11 3500.72 1166.11C3496.99 1166.11 3493.26 1166.11 3489.53 1166.1C3487.21 1166.1 3484.9 1166.1 3482.59 1166.1C3474.04 1166.09 3465.49 1166.08 3456.94 1166.06C3428.26 1166.03 3428.26 1166.03 3399 1166C3399 1111.22 3399 1056.44 3399 1000C3419.13 999.671 3439.26 999.341 3460 999.001C3471.14 997.763 3481.4 996.614 3492.12 993.876C3493.33 993.57 3494.53 993.264 3495.77 992.949C3505.27 990.419 3513.63 987.116 3522 982.001C3522.6 981.642 3523.21 981.284 3523.83 980.914C3532.12 975.968 3539.7 970.322 3547 964.001C3547.8 963.32 3548.61 962.639 3549.43 961.938C3556.78 955.593 3562.74 948.398 3568.75 940.813C3569.22 940.219 3569.69 939.624 3570.18 939.012C3572.71 935.787 3574.96 932.565 3577 929.001C3578.03 927.33 3578.03 927.33 3579.08 925.626C3579.8 924.418 3580.53 923.21 3581.25 922.001C3581.63 921.397 3582 920.794 3582.39 920.173C3583.94 917.546 3585.01 915.596 3584.95 912.505C3583.7 909.208 3582.23 906.069 3580.62 902.938C3580.27 902.246 3579.92 901.553 3579.56 900.839C3572.71 887.459 3565.26 874.397 3557.77 861.365C3553.53 853.968 3549.38 846.522 3545.25 839.063C3539.91 829.417 3534.49 819.817 3529 810.257C3524.17 801.835 3519.58 793.315 3515.12 784.688C3510.15 775.073 3504.87 765.691 3499.38 756.362C3491.28 742.534 3483.49 728.53 3475.78 714.476C3471.84 707.304 3467.84 700.183 3463.74 693.1C3462.16 690.292 3460.71 687.463 3459.31 684.563C3454.82 675.393 3449.61 666.599 3444.55 657.73C3442.5 654.12 3440.47 650.499 3438.44 646.876C3435.61 641.83 3432.74 636.803 3429.86 631.785C3420.47 615.41 3411.12 598.982 3402.38 582.251C3398.49 574.815 3394.37 567.517 3390.22 560.224C3386.2 553.134 3382.23 546.013 3378.28 538.876C3373.91 530.964 3369.51 523.074 3364.88 515.313C3357.11 502.297 3349.84 488.93 3343.19 475.313C3341.09 471.039 3338.82 466.998 3336.28 462.973C3332.4 456.748 3328.81 450.385 3325.3 443.942C3323.57 440.772 3321.84 437.61 3320.1 434.446C3319.75 433.812 3319.4 433.179 3319.04 432.526C3315.82 426.661 3312.55 420.825 3309.25 415.001C3308.73 414.076 3308.2 413.151 3307.66 412.198C3305.06 407.612 3302.45 403.037 3299.81 398.473C3295.13 390.376 3290.49 382.274 3286.25 373.938C3285.91 373.289 3285.58 372.64 3285.23 371.972C3283.57 368.636 3283 366.822 3283 363.001Z" fill="#ac0430"/>
<path d="M237.919 362.878C239.897 362.879 239.897 362.879 241.916 362.88C243.014 362.879 243.014 362.879 244.134 362.878C246.604 362.876 249.075 362.882 251.545 362.887C253.309 362.887 255.073 362.887 256.836 362.887C261.64 362.886 266.443 362.892 271.247 362.899C276.261 362.905 281.275 362.906 286.289 362.907C295.792 362.91 305.294 362.919 314.796 362.929C325.61 362.94 336.425 362.945 347.24 362.95C369.493 362.961 391.747 362.979 414 363.001C414 370.921 414 378.841 414 387.001C416.62 385.99 419.239 384.979 421.938 383.938C471.808 365.333 524.054 362.656 576.693 362.732C581.428 362.737 586.162 362.732 590.897 362.729C598.831 362.726 606.765 362.73 614.699 362.74C623.791 362.751 632.883 362.747 641.976 362.736C649.877 362.727 657.779 362.726 665.68 362.731C670.358 362.734 675.036 362.735 679.714 362.728C732.326 362.663 732.326 362.663 755 367.313C756.112 367.531 757.224 367.749 758.37 367.974C768.032 369.913 777.564 372.155 787 375.001C787.741 375.218 788.482 375.436 789.245 375.661C813.144 382.842 836.516 394.831 857 409.001C858.022 409.693 859.045 410.385 860.098 411.098C878.498 423.992 895.508 440.212 908.774 458.338C909.979 459.972 911.219 461.573 912.469 463.172C931.344 487.824 943.534 519.269 949.75 549.501C950.048 550.94 950.048 550.94 950.353 552.408C954.405 573.307 954.282 594.144 954.232 615.332C954.224 619.982 954.227 624.631 954.228 629.28C954.229 637.315 954.223 645.349 954.212 653.384C954.195 665 954.19 676.617 954.188 688.233C954.183 707.084 954.17 725.936 954.151 744.787C954.133 763.089 954.118 781.39 954.11 799.691C954.109 800.832 954.109 801.974 954.108 803.15C954.104 812.079 954.1 821.008 954.096 829.937C954.078 873.625 954.037 917.313 954 961.001C894.93 961.001 835.86 961.001 775 961.001C774.963 935.259 774.925 909.518 774.887 882.997C774.857 866.704 774.826 850.412 774.791 834.12C774.773 825.561 774.755 817.002 774.738 808.443C774.735 807.371 774.733 806.298 774.731 805.193C774.696 787.892 774.671 770.591 774.65 753.29C774.628 735.525 774.595 717.76 774.551 699.995C774.525 689.039 774.507 678.084 774.501 667.128C774.496 659.608 774.479 652.088 774.454 644.568C774.441 640.234 774.431 635.9 774.435 631.566C774.439 627.589 774.428 623.612 774.407 619.634C774.402 618.205 774.401 616.775 774.407 615.346C774.487 591.745 767.358 571.813 750.817 554.727C735.863 540.251 716.104 534.829 695.742 534.867C694.843 534.865 693.943 534.862 693.017 534.86C690.02 534.854 687.024 534.854 684.027 534.855C681.871 534.852 679.715 534.849 677.56 534.845C671.714 534.836 665.869 534.834 660.024 534.833C656.367 534.833 652.711 534.83 649.054 534.828C636.284 534.819 623.514 534.814 610.744 534.815C598.863 534.816 586.982 534.805 575.101 534.79C564.884 534.776 554.666 534.771 544.448 534.772C538.354 534.772 532.259 534.769 526.164 534.759C520.427 534.749 514.689 534.749 508.952 534.756C506.855 534.757 504.758 534.755 502.661 534.749C477.924 534.682 455.773 537.87 437.231 555.747C436.495 556.49 435.758 557.234 435 558.001C434.316 558.652 433.631 559.303 432.926 559.973C416.83 576.386 413.856 597.618 413.842 619.598C413.837 621.074 413.832 622.55 413.827 624.027C413.813 628.065 413.806 632.104 413.8 636.142C413.791 640.504 413.778 644.866 413.765 649.228C413.743 656.779 413.725 664.331 413.709 671.882C413.686 682.8 413.658 693.718 413.629 704.635C413.581 722.35 413.538 740.065 413.497 757.779C413.458 774.985 413.417 792.19 413.372 809.395C413.37 810.467 413.367 811.539 413.364 812.643C413.343 821.026 413.321 829.409 413.299 837.791C413.193 878.861 413.097 919.931 413 961.001C353.93 961.001 294.86 961.001 234 961.001C233.98 891.501 233.98 891.501 233.974 870.004C233.974 869.237 233.974 868.471 233.974 867.681C233.967 841.885 233.962 816.09 233.958 790.295C233.958 789.453 233.958 788.612 233.957 787.745C233.954 769.459 233.952 751.174 233.949 732.889C233.948 723.922 233.947 714.956 233.945 705.99C233.945 705.097 233.945 704.205 233.945 703.286C233.941 674.337 233.933 645.389 233.924 616.44C233.914 586.704 233.908 556.969 233.906 527.233C233.906 523.038 233.906 518.843 233.905 514.648C233.905 513.822 233.905 512.997 233.905 512.146C233.904 498.827 233.899 485.509 233.893 472.19C233.887 458.817 233.885 445.444 233.887 432.071C233.887 424.115 233.885 416.159 233.879 408.203C233.875 402.278 233.876 396.354 233.879 390.43C233.88 388.021 233.878 385.612 233.875 383.202C233.871 379.951 233.873 376.699 233.877 373.447C233.874 372.492 233.872 371.537 233.869 370.553C233.889 363.047 233.889 363.047 237.919 362.878Z" fill="#ac0430"/>
<path d="M0 0C58.74 0 117.48 0 178 0C178 317.13 178 634.26 178 961C119.26 961 60.52 961 0 961C0 643.87 0 326.74 0 0Z" fill="#ac0430"/>
</g>
<defs>
<clipPath id="clip0_2466_94">
<rect width="4096" height="1166" fill="white"/>
</clipPath>
</defs>
</svg>
